<?xml version="1.0" encoding="UTF-8" standalone="no"?>
<svg
   xmlns:dc="http://purl.org/dc/elements/1.1/"
   xmlns:cc="http://creativecommons.org/ns#"
   xmlns:rdf="http://www.w3.org/1999/02/22-rdf-syntax-ns#"
   xmlns:svg="http://www.w3.org/2000/svg"
   xmlns="http://www.w3.org/2000/svg"
   xmlns:sodipodi="http://sodipodi.sourceforge.net/DTD/sodipodi-0.dtd"
   xmlns:inkscape="http://www.inkscape.org/namespaces/inkscape"
   width="210mm"
   viewBox="0 0 793.7008 793.70081"
   height="210mm"
   version="1.0"
   id="svg1449"
   sodipodi:docname="clear.svg"
   inkscape:version="1.0.2 (e86c8708, 2021-01-15)">
  <metadata
     id="metadata1453">
    <rdf:RDF>
      <cc:Work
         rdf:about="">
        <dc:format>image/svg+xml</dc:format>
        <dc:type
           rdf:resource="http://purl.org/dc/dcmitype/StillImage" />
        <dc:title />
      </cc:Work>
    </rdf:RDF>
  </metadata>
  <sodipodi:namedview
     pagecolor="#ffffff"
     bordercolor="#666666"
     borderopacity="1"
     objecttolerance="10"
     gridtolerance="10"
     guidetolerance="10"
     inkscape:pageopacity="0"
     inkscape:pageshadow="2"
     inkscape:window-width="2048"
     inkscape:window-height="1099"
     id="namedview1451"
     showgrid="false"
     inkscape:document-units="mm"
     units="mm"
     inkscape:zoom="1.1077471"
     inkscape:cx="281.5008"
     inkscape:cy="421.125"
     inkscape:window-x="0"
     inkscape:window-y="25"
     inkscape:window-maximized="0"
     inkscape:current-layer="svg1449"
     inkscape:document-rotation="0" />
  <defs
     id="defs1423">
    <clipPath
       id="a">
      <path
         d="M 0.015625,0 H 297.63672 V 266.98437 H 0.015625 Z m 0,0"
         id="path1405" />
    </clipPath>
    <clipPath
       id="b">
      <path
         d="M 297.64062,0.125 H 594.98437 V 267 H 297.64062 Z m 0,0"
         id="path1408" />
    </clipPath>
    <clipPath
       id="c">
      <path
         d="M 0.015625,287.36328 H 297.63672 V 554 H 0.015625 Z m 0,0"
         id="path1411" />
    </clipPath>
    <clipPath
       id="d">
      <path
         d="M 297.64062,287.49219 H 594.98437 V 554.48047 H 297.64062 Z m 0,0"
         id="path1414" />
    </clipPath>
    <clipPath
       id="e">
      <path
         d="M 0.015625,575 H 297.63672 V 841.5 H 0.015625 Z m 0,0"
         id="path1417" />
    </clipPath>
    <clipPath
       id="f">
      <path
         d="M 297.64062,575 H 594.98437 V 841.5 H 297.64062 Z m 0,0"
         id="path1420" />
    </clipPath>
    <clipPath
       id="d-6">
      <path
         d="M 0.015625,0 H 297.63672 V 268 H 0.015625 Z m 0,0"
         id="path1532" />
    </clipPath>
    <clipPath
       id="f-8">
      <path
         d="M 297.63672,287.48437 H 594.62109 V 554.47266 H 297.63672 Z m 0,0"
         id="path1538" />
    </clipPath>
    <clipPath
       id="f-81">
      <path
         d="M 297.64062,575 H 594.98437 V 841.5 H 297.64062 Z m 0,0"
         id="path2240" />
    </clipPath>
    <clipPath
       id="c-6">
      <path
         d="M 0.015625,287.36328 H 297.63672 V 554 H 0.015625 Z m 0,0"
         id="path2231" />
    </clipPath>
  </defs>
  <path
     d="M 71.600571,14.665108 C 63.430437,18.870966 53.525246,18.371313 45.761427,13.413221 L 37.835623,8.4578918 C 33.374441,5.6494035 27.598248,6.3082893 23.886549,10.019984 L 10.022583,23.883955 C 6.3081322,27.598401 5.6492555,33.374589 8.4604818,37.833034 l 4.9553352,7.925795 c 4.875731,7.846177 5.454999,17.67177 1.249138,25.841896 C -11.152231,121.69769 -2.8695333,184.77189 39.416937,226.55871 91.03484,277.51772 174.82262,277.13888 225.98204,225.97945 277.14147,174.82003 277.52031,91.032246 226.56131,39.414348 184.77174,-2.8693853 121.69755,-11.152084 71.600571,14.665108 Z M 26.458938,43.126051 c -4.543543,-4.543543 -4.546286,-11.975183 -0.008,-16.513226 4.538052,-4.538049 11.966931,-4.532564 16.510484,0.011 4.540792,4.540792 4.546285,11.969678 0.008,16.507722 -4.455674,4.455695 -11.969678,4.535307 -16.51047,-0.005 z m 25.512445,8.842742 C 96.281181,7.6590002 168.43148,7.6891846 212.78245,52.04013 c 12.63406,12.634049 21.63877,27.579703 27.09377,43.434027 -2.72338,-1.240887 -6.19075,-2.067232 -10.73428,-2.15234 -9.57301,-0.167463 -20.96342,1.641709 -31.86243,3.45364 -5.28204,0.823591 -10.23462,1.647201 -14.61071,2.223729 l -0.4118,0.08233 c -7.76107,0.985564 -10.97587,4.864734 -14.95387,-30.470545 l -0.16746,-1.320504 c -0.99381,-9.081588 -2.15234,-19.316211 -9.99853,-24.850825 -4.70551,-3.387748 -11.14608,-4.216842 -18.90716,-2.402175 -17.49879,3.953289 -16.99091,28.224853 -16.8207,39.782739 l 1e-5,0.32944 c -0.003,1.155779 -0.0823,2.393945 -0.32946,3.464608 -0.82359,4.129007 -6.3527,4.870243 -8.25523,1.155794 C 107.29,74.118125 97.711511,65.527964 85.406887,61.475835 66.00283,55.112129 45.204116,62.035878 33.077951,77.302722 37.942697,68.144261 44.295416,59.644692 51.97138,51.968733 Z m -5.174968,61.168927 c 1.811923,-4.78787 7.261416,-7.26143 12.049311,-5.44401 4.790606,1.82015 7.269648,7.26966 5.454979,12.05479 -1.814663,4.78514 -7.261421,7.26143 -12.049288,5.44402 -4.790628,-1.82016 -7.187313,-7.18731 -5.455002,-12.0548 z m 21.3917,19.73899 c -0.993817,-2.97044 0.573777,-6.19073 3.544233,-7.17907 0.247079,-0.0823 9.905173,-3.62933 13.531786,-13.36705 3.629337,-9.57575 -1.246396,-18.739694 -1.326005,-18.989511 -1.573083,-2.72613 -0.584751,-6.190745 2.141366,-7.758345 2.720639,-1.567575 6.190732,-0.573767 7.761085,2.149599 0.329434,0.494167 7.6842,13.789857 2.075473,28.480167 -5.523625,14.77542 -19.804891,19.80489 -20.381407,20.05197 -3.052821,1.07069 -6.273105,-0.4969 -7.346531,-3.38776 z M 57.022817,86.230636 c 1.811914,-4.787871 7.261422,-7.261416 12.049302,-5.444012 4.787866,1.817406 7.266907,7.266923 5.452236,12.057538 -1.814664,4.785137 -7.258683,7.258688 -12.052049,5.441265 -4.787865,-1.817416 -7.266903,-7.266905 -5.449489,-12.054791 z m 75.134463,33.877484 c 4.79062,1.82019 7.26967,7.26968 5.455,12.05482 -1.81467,4.7906 -7.26142,7.26142 -12.0493,5.444 -4.79061,-1.82016 -7.26965,-7.26965 -5.45499,-12.05478 1.72957,-4.87025 7.17907,-7.34379 12.04929,-5.44404 z m 14.78366,15.60729 c 1.81468,-4.78513 7.26144,-7.26142 12.05204,-5.44127 4.78789,1.81741 7.26693,7.26693 5.45226,12.05753 -1.81468,4.78513 -7.26144,7.26144 -12.05205,5.44127 -4.87024,-1.89978 -7.26692,-7.26692 -5.45225,-12.05753 z M 52.042768,212.77986 C 21.978538,182.71563 12.218853,139.78673 22.933916,101.4865 c -2.138616,20.30728 9.015693,40.70242 28.584483,49.04825 11.972429,5.20791 24.768461,4.96358 35.991421,0.67536 3.881905,-1.56485 7.516747,2.72887 5.452248,6.27586 -0.579269,0.9087 -1.235406,1.89975 -2.061748,2.7261 l -0.164723,0.16473 c -7.840706,8.49957 -24.175467,26.32232 -13.688268,40.93851 4.628637,6.44057 9.910682,10.07541 15.774726,10.65742 9.493385,1.07616 17.166605,-5.93818 23.933875,-12.04107 l 0.99106,-0.82635 c 26.40469,-23.76366 26.15761,-18.72871 31.36277,-12.86466 l 0.32945,0.32945 c 2.9732,3.30263 6.11388,7.26691 9.49887,11.31629 7.02259,8.66977 14.20714,17.50703 21.55642,23.69777 5.20242,4.37882 9.49613,6.19623 13.54001,6.11662 -44.06819,28.71077 -103.507561,23.56326 -141.991742,-14.92092 z m 163.943492,-3.23127 c 2.96771,-11.55514 -5.46049,-24.27155 -11.08019,-38.80264 -1.81742,-4.62315 -3.47011,-9.08159 -4.62591,-12.54896 -0.33218,-0.99107 -0.0823,-1.73505 0.0796,-2.23196 0.16472,-0.49416 0.57927,-1.23815 1.40287,-1.73231 3.13793,-1.81466 7.34653,-4.04114 11.71986,-6.2676 12.62857,-6.51745 26.00112,-10.47348 32.43619,-19.22013 1.00206,28.8947 -9.05687,58.11061 -29.93244,80.8036 z m 0,0"
     id="path1425"
     style="stroke-width:0.993919" />
  <path
     d="m 336.16797,14.665016 c -8.17017,4.20589 -18.07814,3.708979 -25.83926,-1.246382 L 302.40013,8.4605218 C 297.94443,5.6520295 292.16546,6.3081643 288.451,10.022622 l -13.8613,13.861296 c -3.71446,3.714458 -4.37059,9.493432 -1.56485,13.951882 l 4.95811,7.92858 c 4.87302,7.843475 5.45502,17.666347 1.24913,25.836517 C 253.4148,121.69811 261.69752,184.7726 303.98146,226.56237 355.59959,277.52161 439.39051,277.1455 490.55017,225.98584 541.70983,174.82618 542.08594,91.035257 491.1267,39.417131 449.33967,-2.8695499 386.26519,-11.152279 336.16797,14.665016 Z M 444.48863,230.9165 c -3.21754,3.21755 -7.51128,5.03497 -12.13445,4.86477 -4.45845,-1e-5 -8.66709,-1.90254 -11.72266,-5.12283 -3.05558,-3.2203 -4.79064,-7.43168 -4.62868,-11.88738 l 0.0823,-4.04665 c 4.94987,-4.78516 18.81116,-17.4934 33.83374,-24.91683 l -0.4832,29.55647 c -0.0796,4.37335 -1.81193,8.41726 -4.94713,11.55245 z m -27.11858,-93.29259 0.40082,-24.85094 c 0.0796,-6.5202 -1.32601,-12.878458 -4.05215,-18.575065 2.8881,-5.364424 10.64373,-17.084334 24.83995,-23.681416 8.42274,12.716474 12.80708,27.494714 12.56274,42.931841 l 0.003,0.49691 c -12.711,5.27656 -25.08979,15.34377 -33.75412,23.67867 z M 372.18427,70.156851 c -8.91415,0.656134 -17.00198,4.285488 -23.60455,9.729519 -6.27588,-3.140683 -18.66015,-10.572346 -25.02389,-22.382855 12.87296,-12.20858 30.03965,-19.964211 48.94415,-20.86469 -4.86476,13.787167 -3.20658,25.345103 -0.31571,33.518026 z M 291.02614,43.126096 c -4.54356,-4.543561 -4.5463,-11.96974 -0.008,-16.507805 4.53806,-4.538065 11.96698,-4.538072 16.51055,0.0055 4.5408,4.540809 4.54355,11.972491 0.005,16.510556 -4.4557,4.455705 -11.967,4.532569 -16.50781,-0.0082 z m 25.5812,169.657344 c -28.82346,-28.82346 -38.91264,-69.44645 -30.26203,-106.50597 -0.0796,1.40287 -0.16198,2.80849 -0.16198,4.29097 -0.23883,16.92511 13.304,30.9621 30.22635,31.22017 16.92509,0.25531 30.95385,-13.27928 31.1927,-30.19889 0.24159,-15.439869 13.02944,-27.898277 28.55167,-27.563348 7.42891,0.170209 14.4488,3.225789 19.64849,8.595691 5.28755,5.452284 8.0988,12.551767 7.93408,19.980697 l -1.76802,105.99808 c -0.15923,8.25254 2.89636,15.93129 8.67807,21.87771 1.48523,1.48524 3.13794,2.97323 4.87025,4.04667 -34.9154,5.68288 -72.06825,-4.90046 -98.90958,-31.74178 z m 160.81181,0.0714 c -4.53806,4.53806 -9.40832,8.57921 -14.52566,12.20857 0.33218,-1.81467 0.49691,-3.63211 0.57652,-5.52914 l 1.77075,-105.99534 c 0.40082,-23.857121 -8.52432,-46.481578 -25.20783,-63.65925 -16.68352,-17.177679 -38.97578,-26.929172 -62.8329,-27.351954 -4.0439,-0.08511 -7.92584,0.161968 -11.80503,0.571028 38.46515,-11.044552 81.72369,-1.449545 112.03513,28.861897 44.26608,44.430803 44.30177,116.581439 -0.011,160.894189 z"
     id="path1429"
     style="stroke-width:0.993924"
     sodipodi:nodetypes="cccssccccsccccscccccccccccccccccccccscccsccccccccccsscccscccss" />
  <path
     d="m 336.16712,279.23196 c -8.17009,4.20585 -18.07521,3.70619 -25.83627,-1.24911 l -7.9285,-4.95806 c -4.4584,-2.80574 -10.23732,-2.1496 -13.95175,1.56482 l -13.86115,13.86115 c -3.71442,3.71443 -4.37056,9.49336 -1.56209,13.94901 l 4.95806,7.9285 c 4.87297,7.8434 5.45223,17.66892 1.24638,25.83901 -25.81704,50.09672 -17.5344,113.17059 24.75187,154.95721 51.61762,50.95874 135.40772,50.58263 186.56687,-0.57653 51.15916,-51.15915 51.53528,-134.94926 0.57654,-186.56688 -41.78937,-42.28352 -104.86323,-50.56617 -154.95996,-24.74912 z m 102.947,12.18102 c -51.83452,15.0032 -89.14898,15.81032 -109.86796,14.23177 31.93638,-23.84316 73.78889,-28.52944 109.86796,-14.23177 z m -148.0884,16.27979 c -4.54351,-4.54353 -4.5435,-11.97238 -0.005,-16.5104 4.53802,-4.53803 11.96413,-4.53528 16.50765,0.008 4.54075,4.54076 4.54626,11.96962 0.008,16.50765 -4.45567,4.45567 -11.96964,4.53528 -16.5104,-0.005 z m 186.39394,169.7243 c -41.09204,41.09204 -106.1453,44.03505 -150.73763,8.84817 9.32861,2.56415 20.97154,4.96082 34.59386,6.20721 28.89455,2.65472 71.9001,0.44473 122.16428,-21.57553 -1.89703,2.22645 -3.95877,4.45842 -6.02051,6.52015 z m 21.28177,-29.5452 c -56.20232,30.10524 -104.41025,33.38865 -135.36929,30.65156 -30.29743,-2.73983 -53.33346,-13.065 -59.11513,-15.8762 -8.66974,-12.13985 -14.62161,-25.6798 -17.84736,-39.63427 12.38692,4.29916 34.09971,10.33614 62.66208,12.32924 38.30554,2.66022 96.25388,-1.94095 161.53773,-36.49912 -0.32394,16.83983 -4.27995,33.67692 -11.86803,49.02879 z m 11.03621,-64.54811 c -64.45752,35.71394 -121.66462,40.56219 -159.14382,38.06943 -34.50875,-2.32803 -58.69783,-11.00601 -66.87341,-14.39374 -1.16128,-13.87213 -0.011,-27.90349 3.86268,-41.35835 9.57844,3.47284 28.32078,8.84545 54.98338,10.42676 34.01185,1.99584 87.91634,-2.19078 155.01761,-31.96109 6.44329,12.38417 10.49538,25.67704 12.15356,39.21699 z M 344.29604,362.1161 c -25.51232,-1.41383 -43.42557,-6.62171 -52.0953,-9.68001 5.2765,-12.38142 12.78497,-24.01886 22.60501,-34.33305 18.73959,3.06378 67.2797,6.5531 142.2271,-17.68264 7.18179,4.54075 13.9545,9.8255 20.23307,16.10408 4.87295,4.87295 9.1639,9.99298 12.96618,15.44244 -63.38685,27.87332 -113.90633,31.98033 -145.93606,30.14918 z m 0,0"
     id="path1437"
     style="stroke-width:0.993914" />
  <path
     d="m 600.73389,279.23206 c -8.17015,4.20589 -18.07537,3.70623 -25.83922,-1.25187 l -7.92581,-4.95537 c -4.46119,-2.80848 -10.23741,-2.14959 -13.94911,1.56211 l -13.86402,13.86402 c -3.71171,3.71171 -4.37334,9.49067 -1.5621,13.94911 l 4.95536,7.92581 c 4.87574,7.84622 5.45775,17.66907 1.24912,25.84198 -25.81724,50.09711 -17.53178,113.16873 24.75206,154.95843 51.61804,50.95915 135.40607,50.58029 186.56564,-0.57927 51.15955,-51.15957 51.53841,-134.94759 0.57926,-186.56563 -41.78969,-42.28385 -104.86406,-50.56656 -154.96118,-24.74932 z m 133.50079,30.35258 -42.67368,14.75898 -19.7473,-40.54055 c 22.37185,2.07274 44.16991,10.66569 62.42098,25.78157 z m -107.38978,27.9394 -4.3651,20.38696 -20.38971,4.36784 -13.05687,-37.81441 z m 7.44539,32.19744 5.43579,-25.42191 21.8008,14.04245 21.78708,-14.02324 5.46051,25.43016 25.42741,5.45775 -14.02325,21.78708 14.04247,21.80081 -25.42192,5.4358 -5.43854,25.42465 -21.79807,-14.04519 -21.78983,14.02598 -5.45775,-25.4274 -25.43015,-5.46051 14.02597,-21.78982 -14.04519,-21.79806 z m 9.72402,-39.29143 17.40276,-35.90089 17.43571,35.91737 -17.41374,11.30261 z m 76.89996,101.16335 13.05961,37.81168 -37.81442,-13.05687 4.36785,-20.38972 z M 606.4003,396.95259 595.09768,414.36634 559.1803,396.93063 595.08122,379.52787 Z m -4.27727,34.66826 20.39245,4.38708 4.38433,20.3897 -37.80345,13.02942 z m 41.94894,31.88448 17.41373,-11.3026 17.42473,11.31907 -17.40276,35.90091 z m 47.55217,6.13036 42.68742,14.79466 c -18.15773,15.18179 -40.10954,23.75825 -62.39628,25.72943 z m 42.49524,-42.49525 40.52684,-19.71161 c -2.05353,22.36911 -10.63274,44.15894 -25.72941,62.39629 z m -6.11115,-12.71645 -11.31906,-17.42472 11.3026,-17.41375 35.91738,17.43571 z m -7.12417,-52.01063 -20.39245,-4.38156 -4.38432,-20.39521 37.80345,-13.02392 z m -69.70713,-78.61852 -19.71435,40.52407 -42.68468,-14.79742 c 18.07263,-15.09667 40.02719,-23.67587 62.39903,-25.72665 z m -95.5848,23.89825 c -4.54354,-4.54354 -4.54629,-11.97521 -0.008,-16.51327 4.53806,-4.53806 11.96696,-4.53257 16.51049,0.011 4.54081,4.5408 4.54629,11.96973 0.008,16.50778 -4.4557,4.45571 -11.96971,4.53532 -16.51051,-0.005 z m 18.49817,16.51601 14.79467,42.68743 -40.52134,19.7116 c 2.05078,-22.37185 10.54488,-44.2413 25.72667,-62.39903 z m -25.71844,83.03581 40.54057,19.74728 -14.75899,42.67369 c -15.19825,-18.16871 -23.70883,-40.04913 -25.78158,-62.42097 z m 40.40057,77.03996 42.67368,-14.75899 19.7473,40.54056 c -22.2895,-1.99039 -44.25228,-10.58333 -62.42098,-25.78157 z m 185.94517,-97.57791 -40.54056,-19.7473 14.75898,-42.67368 c 15.03354,18.16871 23.70883,40.04914 25.78158,62.42098 z m 0,0"
     id="path1441"
     style="stroke-width:0.993922" />
  <path
     d="m 600.74244,14.669407 c -8.17195,4.206611 -18.07699,3.70752 -25.84036,-1.247732 L 566.97694,8.4636354 C 562.51802,5.6555711 556.73731,6.313709 553.02427,10.026747 l -13.86489,13.86489 c -3.71302,3.713025 -4.3684,9.490991 -1.56035,13.949909 l 4.95528,7.927879 c 4.87302,7.845619 5.45437,17.668416 1.24775,25.84038 -25.81844,50.098445 -17.54229,113.170555 24.7407,154.959935 51.61494,50.95128 135.40486,50.57012 186.56729,-0.59234 C 806.27252,174.81495 806.65643,91.022283 755.70241,39.410108 713.913,-2.8728798 650.84365,-11.151779 600.74244,14.669407 Z m -45.1459,28.461957 c -4.54119,-4.541185 -4.54395,-11.969972 -0.005,-16.508448 4.53845,-4.53844 11.96725,-4.535675 16.50843,0.005 4.54393,4.543923 4.54668,11.972723 0.008,16.511165 -4.45618,4.456194 -11.96725,4.535702 -16.5112,-0.008 z m 122.1405,126.763986 c -17.66293,9.56775 -32.10643,21.20318 -40.85153,29.12559 -2.31447,-6.10977 -6.03023,-11.31185 -10.98551,-15.44444 -5.94524,-4.95253 -12.96269,-7.51655 -19.15473,-8.75608 8.83011,-4.53568 22.28364,-10.88677 35.65769,-15.67203 z m -31.29747,-24.20052 c -8.4215,-11.3941 -16.02031,-24.10997 -20.89607,-32.94557 5.86296,2.39673 13.12722,4.21487 20.88784,3.39218 6.43885,-0.65813 12.29632,-2.88486 17.74794,-6.68016 2.8931,11.47638 8.34747,29.1448 17.7644,46.9805 z m -21.46372,-6.44706 -46.89273,-14.21591 c 10.5632,-2.30898 21.79003,-5.93426 31.44556,-12.12356 2.89309,5.36662 8.42698,15.35944 15.44717,26.33947 z m -4.12435,13.37129 c -11.79999,5.19659 -22.03686,10.47546 -27.56526,13.3658 -4.54393,-10.48916 -11.81096,-19.90063 -19.32751,-27.58171 z m 55.67346,89.6721 1.32178,2.64353 c -34.25639,4.8593 -70.33637,-5.80537 -96.67859,-32.14758 -21.71872,-21.71874 -32.87427,-50.20539 -33.21432,-78.76883 12.30181,9.33467 32.28472,27.33765 35.84417,47.89366 l 1.15723,6.43884 6.5211,-0.74041 c 0.16729,0.003 15.60351,-1.56309 25.67857,6.6966 5.11707,4.2944 8.01017,10.48918 8.75606,18.82567 l 0.66363,8.25423 8.00469,-2.05946 c 1.07496,-0.0822 27.4062,-6.42787 41.94568,22.96375 z m 21.02769,-66.4451 40.53891,12.31552 c -21.37871,8.66008 -40.772,25.90343 -51.66702,36.79844 -0.90768,0.90769 -1.73311,1.73311 -2.47352,2.47352 -9.58148,-13.87036 -22.13284,-19.98287 -33.19512,-21.96828 10.81001,-9.15917 27.40072,-21.45549 46.79675,-29.6192 z m 44.4247,36.99864 c -15.10164,15.10166 -33.50498,25.08625 -52.98604,29.86327 5.5284,-6.18655 36.30759,-39.28021 65.69645,-45.0472 -3.71302,5.36387 -8.00741,10.48095 -12.71041,15.18393 z m -4.30809,-45.40369 c 1.40678,2.55853 2.89035,5.0348 4.62619,7.4288 l -40.62116,-12.39779 c -11.56414,-17.50388 -18.5871,-37.06995 -22.38787,-50.61125 10.40142,4.46167 24.18953,6.3648 39.79028,0.18098 0.2468,1.40405 0.57862,2.88761 0.82541,4.45619 -9.90231,12.54586 -8.98639,30.78741 2.575,42.34881 4.20937,4.37941 9.57873,7.26974 15.19215,8.59426 z m 27.32942,12.14275 c -4.21212,-3.38396 -8.01015,-7.68108 -11.23232,-12.54861 5.0348,-1.40404 9.90506,-4.12436 13.86764,-8.08694 2.6408,-2.6408 4.70298,-5.69567 6.18654,-8.83008 -1.64537,10.06958 -4.53296,20.05964 -8.82186,29.46563 z m 9.88587,-54.31605 c -1.57133,-4.20938 -4.04759,-8.17195 -7.43429,-11.55865 -9.49647,-9.49647 -23.53138,-11.81096 -35.16956,-6.78161 -0.57861,-3.7158 -0.91043,-6.02752 -0.99269,-6.1098 l -1.24224,-10.483678 -9.24419,5.278865 c -28.39067,16.335683 -46.72545,-3.649946 -47.4686,-4.393103 l -5.53391,-6.356572 -5.27886,6.600644 c -5.2816,6.603357 -10.97729,10.149114 -17.7452,10.807254 -12.87768,1.31628 -24.93268,-8.594236 -25.01496,-8.676524 l -5.12253,-4.294385 -4.53845,4.867518 c -15.92709,16.919791 -46.9613,19.714171 -61.08124,20.122741 3.62528,-22.782733 14.26527,-44.655052 31.8432,-62.232974 4.86751,-4.867524 10.15187,-9.15917 15.59801,-12.954461 0.0822,0.08224 0.16453,0.164533 0.16453,0.164533 -0.32907,0.329069 -0.49634,0.496349 -0.57861,0.578616 -2.55855,2.887608 -2.309,7.261528 0.58135,9.82279 2.89035,2.56129 7.34927,2.232215 9.82554,-0.573097 0.16454,-0.164541 9.73779,-10.895057 20.21873,-20.054218 -3.21943,4.870286 -4.62074,8.750578 -4.70299,9.161913 -1.1545,3.633496 0.82816,7.596075 4.45892,8.753304 3.6335,1.154506 7.59607,-0.822654 8.83284,-4.373911 0.2468,-0.740408 5.77247,-16.012081 24.9217,-20.956396 -5.2816,5.77522 -8.24872,13.535841 -8.0787,21.954609 0.33455,12.877654 7.60155,22.952736 18.99293,26.424454 11.06505,3.304426 22.95001,-0.819938 29.46839,-10.310921 2.22946,-3.216673 1.40129,-7.511072 -1.82086,-9.740527 -3.21668,-2.229463 -7.51107,-1.406775 -9.7378,1.812632 -3.54849,5.199355 -9.57598,6.104289 -13.95264,4.864784 -2.64081,-0.825412 -8.75057,-3.6335 -9.00011,-13.294503 -0.1673,-6.107028 2.55579,-11.638178 7.25877,-14.69032 22.0341,-13.944417 96.75536,19.352169 101.57352,96.620993 z"
     id="path1555"
     style="stroke-width:0.992806"
     sodipodi:nodetypes="cccssccccsccccccccccccccccccccccccccccccscccccccccccscccsccsccccccccccscccsccccccccccccscccsccccccccccccccc" />
  <path
     d="m 71.75036,279.30874 c -8.17507,4.21673 -18.084677,3.73019 -25.839181,-1.215 l -7.922188,-4.94792 c -4.453145,-2.80383 -10.231226,-2.13862 -13.950424,1.58058 l -13.878939,13.87894 c -3.7191972,3.7192 -4.3844145,9.49729 -1.5833417,13.95318 l 4.9479287,7.92219 c 4.862725,7.83697 5.434477,17.66135 1.217744,25.83643 -25.880434,50.13079 -17.6778641,113.19493 24.552737,154.93073 51.551942,50.8922 135.345134,50.41116 186.569974,-0.81368 51.22483,-51.22482 51.70587,-135.01803 0.81367,-186.56997 C 184.94528,261.63087 121.88115,253.42831 71.75036,279.30874 Z m -45.1801,28.51658 c -4.535602,-4.53561 -4.530103,-11.96301 0.01374,-16.50685 4.54386,-4.54386 11.974,-4.5521 16.509602,-0.0165 4.538353,4.53835 4.530113,11.96849 -0.01374,16.51235 -4.461381,4.46139 -11.971244,4.54934 -16.509597,0.011 z m 61.095958,88.69439 c -4.213989,4.21399 -11.146595,4.21949 -15.352334,0.0137 -2.391503,-2.3915 -4.780249,-11.88327 -6.256378,-21.62246 9.739171,1.47614 19.23095,3.86488 21.622455,6.25639 4.205736,4.20574 4.200247,11.13834 -0.01372,15.35232 z m 155.013172,27.60947 c -4.06006,16.42987 -11.75134,32.03784 -23.15357,45.58968 l -59.80125,-59.80125 34.37163,-34.37162 z m -88.05118,-37.65376 4.45314,4.45314 -9.25538,9.25537 -11.21806,-11.21806 c 5.44822,0.98411 11.06412,0.1567 16.0203,-2.49045 z m -19.30793,-14.34899 c -2.3915,-2.3915 -4.7775,-11.88054 -6.25638,-21.62246 9.74193,1.47887 19.31343,3.94734 21.62246,6.25638 4.20849,4.20848 4.20299,11.14109 -0.011,15.35508 -4.21398,4.21399 -11.06413,4.30195 -15.35508,0.011 z m 97.84809,-27.90084 c 10.13775,19.55533 14.41221,41.5104 12.4138,62.97617 l -41.48839,-41.4884 c -5.44548,-5.44548 -14.36,-5.43723 -19.81372,0.0165 l -15.28636,15.28636 -4.28821,-4.28821 c 5.37127,-9.50003 4.0628,-21.71592 -4.02156,-29.80029 -8.16408,-8.16408 -31.85368,-10.70402 -38.95397,-11.361 l -8.2548,-0.65148 0.65149,8.25479 c 0.65696,7.1003 3.19692,30.78989 11.361,38.95397 0.82464,0.82465 1.81424,1.64931 2.72136,2.3915 -3.54878,0.0852 -7.01782,1.41017 -9.74468,4.13703 l -14.62388,14.62388 -2.14411,-2.14411 c 5.37675,-9.50003 4.0628,-21.71592 -4.018814,-29.79754 -8.166827,-8.16683 -31.856428,-10.70677 -38.953958,-11.36099 l -8.257541,-0.65424 0.656972,8.25481 c 0.651476,7.10027 3.191417,30.78987 11.358247,38.9567 7.916695,7.91669 19.805465,9.39282 29.220276,4.43115 l 2.226573,2.22657 -14.211555,14.21157 c -5.45372,5.45372 -5.459219,14.37098 -0.01653,19.8137 l 63.0174,63.0174 c -58.616481,5.33276 -101.756948,-35.32823 -103.967023,-56.214 -0.494797,-4.95341 0.665221,-8.75234 3.721937,-11.80905 1.569602,-1.56961 3.221654,-2.06714 4.873712,-1.23974 1.566854,0.74219 3.298629,2.63889 2.966022,5.28055 -0.247401,2.06164 0.409569,4.20849 2.058873,5.363 5.448239,4.12328 11.641395,0.56901 11.891538,-4.79949 0.50304,-7.92493 -4.02982,-15.43205 -11.292279,-18.73066 -6.932598,-3.12819 -14.857544,-1.47065 -20.55866,4.23047 -2.314532,2.31453 -4.049049,4.87371 -5.371249,7.68029 -16.561825,-41.01559 -8.263047,-89.8929 25.031031,-123.18698 43.541797,-43.5418 113.876638,-44.42418 158.254068,-2.5262 -2.72411,0.25016 -5.36574,0.91262 -8.08986,1.98742 -7.43289,3.14469 -11.97949,9.83539 -11.7376,17.51017 0.23916,7.84247 5.35476,14.77233 12.61448,17.40847 3.46631,1.31671 7.5126,-0.25563 9.00248,-3.72469 1.65207,-3.79616 -0.2419,-8.16958 -4.20299,-9.48628 -2.30903,-0.82465 -3.46355,-2.96875 -3.54602,-4.70603 2e-5,-1.81424 0.99234,-3.13644 3.05673,-4.0463 3.9666,-1.65207 8.01015,-1.24249 12.3011,1.06381 1.89671,1.07204 3.79341,2.47396 5.61041,4.12051 3.38383,2.55918 5.85505,6.0255 7.83423,9.8189 z"
     id="path1563"
     style="stroke-width:0.99519"
     sodipodi:nodetypes="cccssccccsccsssssssscsssccccccccccscsssscssccscccscsccscccsccscccscccccscsccccccccccss" />
  <g
     clip-path="url(#f-81)"
     id="g2267"
     transform="matrix(0.70281 0.70281 -0.70281 0.70281 834.628 -161.044)">
    <path
       d="m 335.04687,667.84375 c -2.82031,8.80859 -10.22265,15.5 -19.26953,17.49609 l -9.16797,2.11328 c -5.16796,1.17188 -8.8125,5.75391 -8.8125,11.03516 v 19.72656 c 0,5.28125 3.64454,9.85938 8.8125,11.03516 l 9.16797,2.11328 c 9.04688,2.11328 16.44922,8.6875 19.26953,17.49219 17.27344,54.00781 68.03907,92.98828 127.85157,92.63672 72.97656,-0.46875 132.32031,-60.34766 132.32031,-133.14063 0,-72.79297 -59.34375,-132.67187 -132.32031,-133.14062 -59.8125,-0.35157 -110.57813,38.625 -127.85157,92.63281 z m 29.4961,40.50781 -16.33203,12.32813 c -0.47266,-4.10938 -0.70703,-8.21875 -0.70703,-12.32813 0,-4.22656 0.23437,-8.33594 0.70703,-12.32812 z m 29.96484,-92.16797 c 6.58203,-4.8125 13.75,-9.03906 21.38672,-12.44531 l -2.58594,20.3125 z m 131.02735,55.53516 -14.21875,28.41406 h -35.01954 l 17.50782,-30.29297 z m -63.45704,53.07031 17.50782,30.40625 -17.50782,26.53516 -17.51171,-26.53516 z m 31.72657,22.1875 -17.50782,-30.28906 h 35.01954 l 14.21875,28.41406 z m -31.72657,-55.0625 -17.51171,-30.29297 17.51171,-26.53125 17.50782,26.53125 z m -47.71093,-49.54687 6.69922,11.625 -33.49219,1.99609 -20.09375,-11.85937 c 3.8789,-5.63672 8.22656,-11.03516 13.04297,-15.85157 z m 15.86328,27.47265 17.6289,30.29297 h -35.01953 l -14.21875,-28.41406 z m 17.6289,46.73047 -17.6289,30.40625 -31.72656,-1.875 14.21875,-28.41406 h 35.13671 z m -60.16796,44.26172 33.49218,1.99609 -6.69922,11.625 -33.84375,14.20313 c -4.8164,-4.92969 -9.16406,-10.21094 -13.04296,-15.84766 z m 25.61718,31.81641 2.58594,20.3125 c -7.63672,-3.40235 -14.80469,-7.51172 -21.38672,-12.44532 z m 19.98047,26.41797 -4.58594,-36.39454 6.69922,-11.625 18.44922,27.94141 -0.23437,23.36719 c -7.05078,-0.47266 -13.75,-1.64453 -20.32813,-3.28906 z m 37.01563,-20.07813 18.44922,-27.94141 6.69531,11.625 -4.58203,36.39454 c -6.58203,1.76171 -13.39453,2.8164 -20.32813,3.40625 z m 40.42187,-6.33984 18.80078,7.86718 c -6.57812,4.8125 -13.74609,9.04297 -21.38672,12.44532 z m -1.05859,-18.19532 -6.69531,-11.625 33.48828,-1.99609 20.09375,11.85938 c -3.875,5.63281 -8.22266,11.03515 -13.04297,15.84765 z m 35.01953,-27.94531 -14.92188,-29.9375 h 13.39454 l 29.26171,22.1875 c -1.88281,6.69531 -4.23046,13.15235 -7.28906,19.25781 z m -14.92188,-46.375 14.92188,-29.9414 20.44531,-11.50391 c 2.94141,6.10547 5.40625,12.5625 7.28906,19.25391 l -29.26171,22.1914 z m 6.69532,-44.14453 -33.48828,-1.99609 6.69531,-11.625 33.84375,-14.20703 c 4.82031,4.93359 9.16797,10.21484 13.04297,15.85156 z m -25.73438,-31.9375 -2.58594,-20.3125 c 7.64063,3.40625 14.8086,7.51563 21.38672,12.44531 z m -19.85937,-26.29687 4.58203,36.39453 -6.69531,11.625 -18.44922,-27.94532 0.23437,-23.36328 c 6.9336,0.35157 13.7461,1.52735 20.32813,3.28907 z m -37.01563,19.95703 -18.44922,27.94531 -6.69922,-11.625 4.58594,-36.39453 c 6.57813,-1.76172 13.39453,-2.82031 20.32813,-3.40625 z m -94.83203,40.97656 20.44922,11.50391 14.92187,29.9414 h -13.39453 l -29.26172,-22.1914 c 1.87891,-6.69141 4.23047,-13.14844 7.28516,-19.25391 z m -35.83984,61.52344 c -6.46485,0 -11.75,-5.28516 -11.75,-11.74219 0,-6.45703 5.28515,-11.74219 11.75,-11.74219 6.46093,0 11.75,5.28516 11.75,11.74219 0,6.33984 -5.28907,11.74219 -11.75,11.74219 z m 28.55468,18.54687 29.26172,-22.1875 h 13.39453 l -14.92187,29.9375 -20.44922,11.50781 c -3.05469,-6.10546 -5.40625,-12.5625 -7.28516,-19.25781 z m 224.09375,-17.96094 -16.33203,-12.32812 16.33203,-12.32813 c 0.46875,4.10938 0.70704,8.21875 0.70704,12.32813 0,4.10937 -0.23829,8.21875 -0.70704,12.32812 z m 0,0"
       id="path2265" />
  </g>
  <g
     clip-path="url(#c-6)"
     id="g2255"
     transform="matrix(-0.702814 -0.702814 0.702814 -0.702814 194.807 1050.94)">
    <path
       d="m 260.22656,461.36328 c 2.82031,-8.80469 10.22266,-15.5 19.27344,-17.49609 l 9.16406,-2.11328 c 5.17188,-1.17188 8.8125,-5.75 8.8125,-11.03516 v -19.72266 c 0,-5.28515 -3.64062,-9.86328 -8.8125,-11.03906 L 279.5,397.84375 c -9.05078,-2.11328 -16.45313,-8.6875 -19.27344,-17.49219 C 242.95312,326.34375 192.1875,287.36328 132.375,287.71484 59.398438,288.18359 0.0585938,348.0625 0.0585938,420.85547 c 0,72.79297 59.3398442,132.67187 132.3164062,133.14062 59.8125,0.35547 110.57812,-38.625 127.85156,-92.63281 z M 85.605469,522.0625 c -3.996094,-7.63281 -7.519531,-14.32422 -7.519531,-28.41406 0,-14.08594 3.523437,-20.78125 7.519531,-28.41016 4.230469,-8.10156 9.164062,-17.37891 9.164062,-34.98828 0,-17.61328 -4.816406,-26.76953 -9.164062,-34.98828 -3.996094,-7.63281 -7.519531,-14.32422 -7.519531,-28.41406 0,-14.08985 3.523437,-20.78125 7.519531,-28.41016 3.40625,-6.46094 7.167969,-13.62109 8.578125,-25.125 10.222656,-3.75781 21.269536,-6.10547 32.667966,-6.69531 -0.46875,11.97656 -3.76172,18.19922 -7.40234,25.24218 -4.23047,8.10157 -9.16797,17.37891 -9.16797,34.98829 0,17.61328 4.82031,26.76953 9.16797,34.98828 3.99609,7.63281 7.51953,14.32422 7.51953,28.41406 0,14.08984 -3.52344,20.78125 -7.51953,28.41016 -4.23047,8.10156 -9.16797,17.3789 -9.16797,34.98828 0,17.61328 4.82031,26.76953 9.16797,34.98828 1.05859,1.99609 2.11328,3.99219 3.05469,6.10547 -12.33985,-1.17188 -24.089848,-4.22657 -34.902348,-9.03907 -0.703124,-1.29296 -1.410156,-2.46484 -1.996093,-3.64062 z m 46.179691,0 c -3.99219,-7.63281 -7.51953,-14.32422 -7.51953,-28.41406 0,-14.08594 3.52734,-20.78125 7.51953,-28.41016 4.23046,-8.10156 9.16796,-17.37891 9.16796,-34.98828 0,-17.61328 -4.8164,-26.76953 -9.16796,-34.98828 -3.99219,-7.63281 -7.51953,-14.32422 -7.51953,-28.41406 0,-14.08985 3.52734,-20.78125 7.51953,-28.41016 3.99609,-7.63281 8.58203,-16.20313 9.05078,-31.70313 10.92968,0.70704 21.5039,3.05469 31.49218,6.69532 -1.17578,7.86328 -3.8789,12.91406 -6.8164,18.54687 -4.23047,8.10156 -9.16406,17.37891 -9.16406,34.98828 0,17.61328 4.8164,26.76953 9.16406,34.98828 3.99609,7.63282 7.52344,14.32422 7.52344,28.41407 0,14.08984 -3.52735,20.78125 -7.52344,28.41406 -4.23047,8.09766 -9.16406,17.375 -9.16406,34.98437 0,17.61329 4.8164,26.76954 9.16406,34.98829 0.35547,0.58984 0.58984,1.17578 0.9414,1.64453 -9.16796,2.8164 -18.80078,4.46093 -28.78906,4.8125 -1.64844,-5.28125 -3.76172,-9.39063 -5.8789,-13.14844 z M 272.09375,409 c 6.46484,0 11.75391,5.28125 11.75391,11.73828 0,6.45703 -5.28907,11.74219 -11.75391,11.74219 -6.46094,0 -11.75,-5.28516 -11.75,-11.74219 0,-6.33984 5.28906,-11.73828 11.75,-11.73828 z m -24.44141,11.85547 c 0,30.05859 -11.63281,57.41406 -30.66797,77.84375 -0.12109,-1.64453 -0.12109,-3.28906 -0.12109,-5.05078 0,-14.08594 3.52734,-20.78125 7.52344,-28.41016 4.23047,-8.10156 9.16406,-17.37891 9.16406,-34.98828 0,-17.61328 -4.81641,-26.76953 -9.16406,-34.98828 -3.9961,-7.63281 -7.52344,-14.32422 -7.52344,-28.41406 0,-9.03907 1.41016,-15.02735 3.52734,-20.19141 16.92188,20.07422 27.26172,45.90625 27.26172,74.19922 z m -37.95703,-85.00391 c -3.64062,7.28125 -7.05078,16.20313 -7.05078,30.9961 0,17.61328 4.82031,26.76953 9.16797,34.98828 3.99609,7.63281 7.51953,14.32422 7.51953,28.41406 0,14.08984 -3.52344,20.78125 -7.51953,28.41016 -4.23047,8.10156 -9.16797,17.3789 -9.16797,34.98828 0,6.57422 0.70703,12.09375 1.76563,16.67187 -7.52344,5.98828 -15.7461,11.03906 -24.67969,15.03125 -0.58594,-1.17578 -1.17578,-2.23047 -1.64453,-3.28906 -3.9961,-7.63281 -7.51953,-14.32422 -7.51953,-28.41406 0,-14.08594 3.52343,-20.78125 7.51953,-28.41016 4.23047,-8.10156 9.16797,-17.37891 9.16797,-34.98828 0,-17.61328 -4.82032,-26.76953 -9.16797,-34.98828 -3.9961,-7.63281 -7.51953,-14.32422 -7.51953,-28.41406 0,-14.08985 3.52343,-20.78125 7.51953,-28.41016 2.82031,-5.28516 5.75781,-11.03906 7.64062,-19.25781 8.69531,4.58203 16.80078,10.21484 23.96875,16.67187 z M 22.382812,392.44531 c 1.410157,3.51953 3.054688,6.45703 4.585938,9.39063 3.992188,7.63281 7.519531,14.32422 7.519531,28.41406 0,14.08984 -3.527343,20.78125 -7.519531,28.41016 -0.355469,0.58984 -0.707031,1.29296 -0.941406,1.8789 -4.582032,-12.32812 -7.167969,-25.71094 -7.167969,-39.68359 -0.117187,-9.85938 1.175781,-19.3711 3.523437,-28.41016 z m 11.515626,85.1211 c 1.410156,-4.69922 3.292968,-8.45313 5.40625,-12.44532 4.230468,-8.10156 9.167968,-17.3789 9.167968,-34.98828 0,-17.61328 -4.820312,-26.76953 -9.167968,-34.98828 -3.996094,-7.51562 -7.402344,-13.97266 -7.519532,-27.47266 10.457032,-19.96093 26.675782,-36.39843 46.300782,-47.19921 -1.410157,4.10937 -3.175782,7.63281 -5.054688,11.26953 -4.230469,8.10156 -9.164062,17.3789 -9.164062,34.98828 0,17.61328 4.816406,26.76953 9.164062,34.98828 3.996094,7.63281 7.519531,14.32422 7.519531,28.41406 0,14.08985 -3.523437,20.78125 -7.519531,28.41016 -4.230469,8.10156 -9.164062,17.3789 -9.164062,34.98828 0,8.33594 1.054687,14.79297 2.699218,20.19531 C 53.40625,504.21484 42.125,491.88672 33.898438,477.56641 Z m 0,0"
       id="path2253" />
  </g>
</svg>
