<?xml version="1.0" encoding="UTF-8" standalone="no"?>
<!-- Created with Inkscape (http://www.inkscape.org/) -->

<svg
   width="210mm"
   height="297mm"
   viewBox="0 0 210 297"
   version="1.1"
   id="svg5"
   inkscape:version="1.1.1 (c3084ef, 2021-09-22)"
   sodipodi:docname="usm-stickers-a4.svg"
   xmlns:inkscape="http://www.inkscape.org/namespaces/inkscape"
   xmlns:sodipodi="http://sodipodi.sourceforge.net/DTD/sodipodi-0.dtd"
   xmlns="http://www.w3.org/2000/svg"
   xmlns:svg="http://www.w3.org/2000/svg">
  <sodipodi:namedview
     id="namedview7"
     pagecolor="#ffffff"
     bordercolor="#666666"
     borderopacity="1.0"
     inkscape:pageshadow="2"
     inkscape:pageopacity="0.0"
     inkscape:pagecheckerboard="0"
     inkscape:document-units="mm"
     showgrid="false"
     inkscape:zoom="1.0263363"
     inkscape:cx="431.14523"
     inkscape:cy="51.152824"
     inkscape:window-width="1680"
     inkscape:window-height="997"
     inkscape:window-x="0"
     inkscape:window-y="25"
     inkscape:window-maximized="0"
     inkscape:current-layer="layer1" />
  <defs
     id="defs2" />
  <g
     inkscape:label="Layer 1"
     inkscape:groupmode="layer"
     id="layer1">
    <path
       id="rect2609"
       style="opacity:0.25;fill:none;stroke:#000000;stroke-width:0.2;stroke-miterlimit:4;stroke-dasharray:none;stroke-opacity:1"
       d="M 4.2958614,4.4126503 V 7.4124675 L 7.7959055,13.412616 11.295949,7.4124675 h 0.999939 v 2.9998155 h 7.000089 V 7.4124675 h 0.999939 v 2.9998155 h 7.000091 V 7.4124675 h 0.999937 v 2.9998155 h 7.000089 V 7.4124675 h 0.99994 v 2.9998155 h 7.000089 V 7.4124675 h 2.749703 l 1.75028,2.9998155 1.749766,-2.9998155 h 2.75022 v 2.9998155 h 6.999573 V 7.4124675 h 1.000453 V 10.412283 H 67.29563 V 7.4124675 h 1.000456 v 2.9998155 h 6.999573 V 7.4124675 h 0.99994 v 2.9998155 h 7.000089 V 4.4126503 H 27.296007 20.295916 Z" />
    <path
       id="path2645"
       style="opacity:0.25;fill:none;stroke:#000000;stroke-width:0.2;stroke-miterlimit:4;stroke-dasharray:none;stroke-opacity:1"
       d="m 85.941523,4.4126503 v 2.9998172 l 3.500046,6.0001485 3.500045,-6.0001485 h 0.999937 v 2.9998155 h 7.000089 V 7.4124675 h 0.99994 v 2.9998155 h 7.00009 V 7.4124675 h 0.99993 v 2.9998155 h 7.00009 V 7.4124675 h 0.99994 v 2.9998155 h 7.00009 V 7.4124675 h 2.7497 l 1.75028,2.9998155 1.74976,-2.9998155 h 2.75022 v 2.9998155 h 6.99958 V 7.4124675 h 1.00045 v 2.9998155 h 6.99957 V 7.4124675 h 1.00047 v 2.9998155 h 6.99957 V 7.4124675 h 0.99994 v 2.9998155 h 7.00012 V 4.4126503 h -55.99971 -7.00009 z" />
    <path
       id="path2647"
       style="opacity:0.25;fill:none;stroke:#000000;stroke-width:0.2;stroke-miterlimit:4;stroke-dasharray:none;stroke-opacity:1"
       d="m 4.2958614,14.995987 v 2.999819 l 3.5000441,6.00015 3.5000435,-6.00015 h 0.999939 v 2.999817 h 7.000089 v -2.999817 h 0.999939 v 2.999817 h 7.000091 v -2.999817 h 0.999937 v 2.999817 h 7.000089 v -2.999817 h 0.99994 v 2.999817 h 7.000089 v -2.999817 h 2.749703 l 1.75028,2.999817 1.749766,-2.999817 h 2.75022 v 2.999817 h 6.999573 v -2.999817 h 1.000453 v 2.999817 h 6.999573 v -2.999817 h 1.000456 v 2.999817 h 6.999573 v -2.999817 h 0.99994 v 2.999817 h 7.000089 V 14.995987 H 27.296007 20.295916 Z" />
    <path
       id="path2649"
       style="opacity:0.25;fill:none;stroke:#000000;stroke-width:0.2;stroke-miterlimit:4;stroke-dasharray:none;stroke-opacity:1"
       d="m 85.941523,14.995987 v 2.999819 l 3.500046,6.00015 3.500045,-6.00015 h 0.999937 v 2.999817 h 7.000089 v -2.999817 h 0.99994 v 2.999817 h 7.00009 v -2.999817 h 0.99993 v 2.999817 h 7.00009 v -2.999817 h 0.99994 v 2.999817 h 7.00009 v -2.999817 h 2.7497 l 1.75028,2.999817 1.74976,-2.999817 h 2.75022 v 2.999817 h 6.99958 v -2.999817 h 1.00045 v 2.999817 h 6.99957 v -2.999817 h 1.00047 v 2.999817 h 6.99957 v -2.999817 h 0.99994 v 2.999817 h 7.00012 v -5.999636 h -55.99971 -7.00009 z" />
    <path
       id="path2651"
       style="opacity:0.25;fill:none;stroke:#000000;stroke-width:0.2;stroke-miterlimit:4;stroke-dasharray:none;stroke-opacity:1"
       d="m 4.2958614,25.579327 v 2.999819 l 3.5000441,6.00015 3.5000435,-6.00015 h 0.999939 v 2.999817 h 7.000089 v -2.999817 h 0.999939 v 2.999817 h 7.000091 v -2.999817 h 0.999937 v 2.999817 h 7.000089 v -2.999817 h 0.99994 v 2.999817 h 7.000089 v -2.999817 h 2.749703 l 1.75028,2.999817 1.749766,-2.999817 h 2.75022 v 2.999817 h 6.999573 v -2.999817 h 1.000453 v 2.999817 h 6.999573 v -2.999817 h 1.000456 v 2.999817 h 6.999573 v -2.999817 h 0.99994 v 2.999817 h 7.000089 V 25.579327 H 27.296007 20.295916 Z" />
    <path
       id="path2653"
       style="opacity:0.25;fill:none;stroke:#000000;stroke-width:0.2;stroke-miterlimit:4;stroke-dasharray:none;stroke-opacity:1"
       d="m 85.941523,25.579327 v 2.999819 l 3.500046,6.00015 3.500045,-6.00015 h 0.999937 v 2.999817 h 7.000089 v -2.999817 h 0.99994 v 2.999817 h 7.00009 v -2.999817 h 0.99993 v 2.999817 h 7.00009 v -2.999817 h 0.99994 v 2.999817 h 7.00009 v -2.999817 h 2.7497 l 1.75028,2.999817 1.74976,-2.999817 h 2.75022 v 2.999817 h 6.99958 v -2.999817 h 1.00045 v 2.999817 h 6.99957 v -2.999817 h 1.00047 v 2.999817 h 6.99957 v -2.999817 h 0.99994 v 2.999817 h 7.00012 v -5.999636 h -55.99971 -7.00009 z" />
    <path
       id="path2655"
       style="opacity:0.25;fill:none;stroke:#000000;stroke-width:0.2;stroke-miterlimit:4;stroke-dasharray:none;stroke-opacity:1"
       d="m 4.2958614,36.162667 v 2.999819 l 3.5000441,6.00015 3.5000435,-6.00015 h 0.999939 v 2.999817 h 7.000089 v -2.999817 h 0.999939 v 2.999817 h 7.000091 v -2.999817 h 0.999937 v 2.999817 h 7.000089 v -2.999817 h 0.99994 v 2.999817 h 7.000089 v -2.999817 h 2.749703 l 1.75028,2.999817 1.749766,-2.999817 h 2.75022 v 2.999817 h 6.999573 v -2.999817 h 1.000453 v 2.999817 h 6.999573 v -2.999817 h 1.000456 v 2.999817 h 6.999573 v -2.999817 h 0.99994 v 2.999817 h 7.000089 V 36.162667 H 27.296007 20.295916 Z" />
    <path
       id="path2657"
       style="opacity:0.25;fill:none;stroke:#000000;stroke-width:0.2;stroke-miterlimit:4;stroke-dasharray:none;stroke-opacity:1"
       d="m 85.941523,36.162667 v 2.999819 l 3.500046,6.00015 3.500045,-6.00015 h 0.999937 v 2.999817 h 7.000089 v -2.999817 h 0.99994 v 2.999817 h 7.00009 v -2.999817 h 0.99993 v 2.999817 h 7.00009 v -2.999817 h 0.99994 v 2.999817 h 7.00009 v -2.999817 h 2.7497 l 1.75028,2.999817 1.74976,-2.999817 h 2.75022 v 2.999817 h 6.99958 v -2.999817 h 1.00045 v 2.999817 h 6.99957 v -2.999817 h 1.00047 v 2.999817 h 6.99957 v -2.999817 h 0.99994 v 2.999817 h 7.00012 v -5.999636 h -55.99971 -7.00009 z" />
    <path
       id="path2659"
       style="opacity:0.25;fill:none;stroke:#000000;stroke-width:0.2;stroke-miterlimit:4;stroke-dasharray:none;stroke-opacity:1"
       d="m 4.2958614,46.746007 v 2.999819 l 3.5000441,6.00015 3.5000435,-6.00015 h 0.999939 v 2.999817 h 7.000089 v -2.999817 h 0.999939 v 2.999817 h 7.000091 v -2.999817 h 0.999937 v 2.999817 h 7.000089 v -2.999817 h 0.99994 v 2.999817 h 7.000089 v -2.999817 h 2.749703 l 1.75028,2.999817 1.749766,-2.999817 h 2.75022 v 2.999817 h 6.999573 v -2.999817 h 1.000453 v 2.999817 h 6.999573 v -2.999817 h 1.000456 v 2.999817 h 6.999573 v -2.999817 h 0.99994 v 2.999817 h 7.000089 V 46.746007 H 27.296007 20.295916 Z" />
    <path
       id="path2661"
       style="opacity:0.25;fill:none;stroke:#000000;stroke-width:0.2;stroke-miterlimit:4;stroke-dasharray:none;stroke-opacity:1"
       d="m 85.941523,46.746007 v 2.999819 l 3.500046,6.00015 3.500045,-6.00015 h 0.999937 v 2.999817 h 7.000089 v -2.999817 h 0.99994 v 2.999817 h 7.00009 v -2.999817 h 0.99993 v 2.999817 h 7.00009 v -2.999817 h 0.99994 v 2.999817 h 7.00009 v -2.999817 h 2.7497 l 1.75028,2.999817 1.74976,-2.999817 h 2.75022 v 2.999817 h 6.99958 v -2.999817 h 1.00045 v 2.999817 h 6.99957 v -2.999817 h 1.00047 v 2.999817 h 6.99957 v -2.999817 h 0.99994 v 2.999817 h 7.00012 v -5.999636 h -55.99971 -7.00009 z" />
    <path
       id="path2663"
       style="opacity:0.25;fill:none;stroke:#000000;stroke-width:0.2;stroke-miterlimit:4;stroke-dasharray:none;stroke-opacity:1"
       d="m 4.2958614,57.329347 v 2.999819 l 3.5000441,6.00015 3.5000435,-6.00015 h 0.999939 v 2.999817 h 7.000089 v -2.999817 h 0.999939 v 2.999817 h 7.000091 v -2.999817 h 0.999937 v 2.999817 h 7.000089 v -2.999817 h 0.99994 v 2.999817 h 7.000089 v -2.999817 h 2.749703 l 1.75028,2.999817 1.749766,-2.999817 h 2.75022 v 2.999817 h 6.999573 v -2.999817 h 1.000453 v 2.999817 h 6.999573 v -2.999817 h 1.000456 v 2.999817 h 6.999573 v -2.999817 h 0.99994 v 2.999817 h 7.000089 V 57.329347 H 27.296007 20.295916 Z" />
    <path
       id="path2665"
       style="opacity:0.25;fill:none;stroke:#000000;stroke-width:0.2;stroke-miterlimit:4;stroke-dasharray:none;stroke-opacity:1"
       d="m 85.941523,57.329347 v 2.999819 l 3.500046,6.00015 3.500045,-6.00015 h 0.999937 v 2.999817 h 7.000089 v -2.999817 h 0.99994 v 2.999817 h 7.00009 v -2.999817 h 0.99993 v 2.999817 h 7.00009 v -2.999817 h 0.99994 v 2.999817 h 7.00009 v -2.999817 h 2.7497 l 1.75028,2.999817 1.74976,-2.999817 h 2.75022 v 2.999817 h 6.99958 v -2.999817 h 1.00045 v 2.999817 h 6.99957 v -2.999817 h 1.00047 v 2.999817 h 6.99957 v -2.999817 h 0.99994 v 2.999817 h 7.00012 v -5.999636 h -55.99971 -7.00009 z" />
  </g>
</svg>
